<?xml version="1.0" encoding="UTF-8"?>
<svg width="441px" height="116px" viewBox="0 0 441 116" version="1.1" xmlns="http://www.w3.org/2000/svg" xmlns:xlink="http://www.w3.org/1999/xlink">
    <!-- Generator: Sketch 48.2 (47327) - http://www.bohemiancoding.com/sketch -->
    <title>color_wordmark</title>
    <desc>Created with Sketch.</desc>
    <defs>
        <path d="M43.3263158,0.209129853 L43.3263158,87.8345007 C43.3263158,89.0659022 43.8934904,90.2286726 44.8639044,90.9867269 C46.6048309,92.3466791 49.1185898,92.0378385 50.478542,90.296912 L57.2855309,81.5830272 C57.3357641,81.5187219 57.3936793,81.4608067 57.4579847,81.4105735 C57.8932163,81.0705855 58.521656,81.1477956 58.8616441,81.5830272 L65.668633,90.296912 C66.4266873,91.2673261 67.5894577,91.8345007 68.8208592,91.8345007 C71.0299982,91.8345007 72.8208592,90.0436396 72.8208592,87.8345007 L72.8208592,0.32571939 C97.5186085,7.00829959 115.709363,29.8335182 115.709363,56.9634691 C115.709363,89.3372819 89.8069396,115.581443 57.8546814,115.581443 C25.9024231,115.581443 0,89.3372819 0,56.9634691 C0,29.673457 18.406031,6.73912105 43.3263158,0.209129853 Z" id="path-1"></path>
    </defs>
    <g id="Version-3" stroke="none" stroke-width="1" fill="none" fill-rule="evenodd" transform="translate(-240.000000, -174.000000)">
        <g id="color_wordmark" transform="translate(240.000000, 174.000000)">
            <mask id="mask-2" fill="white">
                <use xlink:href="#path-1"></use>
            </mask>
            <use id="Combined-Shape" fill="#FFFFFF" xlink:href="#path-1"></use>
            <path d="M59.0558097,68.1372369 C58.5011311,68.7108178 57.6556808,68.7072273 57.1025824,68.1318511 C54.4808962,65.39859 52.4431238,63.0539994 50.5444161,60.5370653 C48.5840775,58.3100633 48.7831929,54.558898 51.1417624,52.6415758 C52.4952731,51.5410904 54.3276089,51.4199113 55.8170238,52.2654719 C56.6759065,52.7528811 57.2779936,53.4503339 57.6801751,54.24473 C57.8563764,54.5939053 58.2996453,54.5894171 58.4766367,54.2402419 C58.9072633,53.3901932 59.5678208,52.6514497 60.5278415,52.1622453 C61.773103,51.5285237 63.2427643,51.5572476 64.4564201,52.2663695 C67.3522851,53.9574908 67.6580695,58.2660798 65.5547154,60.6555515 C63.3494333,63.5225585 61.1394103,65.9820447 59.0558097,68.1372369" id="heart" fill="#F44599"></path>
            <path d="M178.969969,75.5365402 C176.251381,75.5365402 174.020745,73.2814656 174.020745,70.684713 L174.020745,55.9242245 L152.062921,55.9242245 L152.062921,70.684713 C152.062921,73.2814656 149.901993,75.5365402 147.183405,75.5365402 C144.39511,75.5365402 142.164474,73.2814656 142.164474,70.684713 L142.164474,33.8518272 C142.164474,31.186739 144.39511,29 147.113697,29 C149.901993,29 152.062921,31.186739 152.062921,33.8518272 L152.062921,47.3822751 L174.020745,47.3822751 L174.020745,33.8518272 C174.020745,31.186739 176.251381,29 179.039676,29 C181.758264,29 183.9889,31.186739 183.9889,33.8518272 L183.9889,70.684713 C183.9889,73.2814656 181.758264,75.5365402 178.969969,75.5365402 Z M190.750516,58.5209771 C190.750516,48.9539938 197.930375,41.2320715 208.17736,41.2320715 C218.215222,41.2320715 225.046545,48.6123158 225.046545,57.2226008 C225.046545,60.0926958 223.164446,61.3227365 219.748785,61.3227365 L200.021597,61.3227365 C200.579256,65.4912078 203.994917,68.9763231 209.710922,68.9763231 C211.941558,68.9763231 214.451024,68.2929672 216.542245,67.131262 C217.030197,66.8579197 217.587856,66.7212485 218.215222,66.7212485 C220.097321,66.7212485 221.700591,68.2929672 221.700591,70.1380282 C221.700591,71.4364045 220.864103,72.5297741 219.818492,73.1447944 C216.542245,74.9898555 212.638632,75.8782182 208.735019,75.8782182 C198.488035,75.8782182 190.750516,69.1129943 190.750516,58.5209771 Z M208.17736,48.1339666 C202.670477,48.1339666 200.300426,52.1657667 199.882182,55.4458753 L216.472538,55.4458753 C216.263416,52.3024379 214.03278,48.1339666 208.17736,48.1339666 Z M235.920896,75.5365402 C233.411431,75.5365402 231.459624,73.554808 231.459624,71.1630622 L231.459624,33.3734781 C231.459624,30.9817323 233.411431,29 235.920896,29 C238.290947,29 240.312461,30.9817323 240.312461,33.3734781 L240.312461,71.1630622 C240.312461,73.554808 238.290947,75.5365402 235.920896,75.5365402 Z M268.334827,41.2320715 C276.978541,41.2320715 283.252205,47.5189463 283.252205,58.5209771 C283.252205,69.5230079 276.978541,75.8782182 268.334827,75.8782182 C264.361506,75.8782182 260.736722,74.2381639 257.948427,70.8213842 L257.948427,92.8 C253.901026,92.8 254.886674,88.1102897 253.556863,88.1102897 C252.227052,88.1102897 252.658866,92.8 249.172153,92.8 C249.10801,92.8 249.09559,89.6973445 249.09559,89.4199977 L249.09559,45.9472276 C249.09559,43.4871462 251.047397,41.4370783 253.556863,41.4370783 C255.996621,41.4370783 258.018135,43.4871462 258.018135,45.9472276 L258.018135,46.1522344 C260.667015,42.9404614 264.291799,41.2320715 268.334827,41.2320715 Z M265.546531,68.156296 C270.63517,68.156296 274.050831,64.2611671 274.050831,58.5209771 C274.050831,52.8491227 270.63517,48.9539938 265.546531,48.9539938 C262.688529,48.9539938 259.412282,50.594048 257.948427,52.7124515 L257.948427,64.3978382 C259.412282,66.4479061 262.688529,68.156296 265.546531,68.156296 Z M295.311582,75.0581911 C291.965627,75.0581911 290.083528,73.21313 290.083528,69.8646859 L290.083528,34.6035188 C290.083528,31.3234102 291.965627,29.4783492 295.311582,29.4783492 L308.416568,29.4783492 C322.98541,29.4783492 333.09298,38.5669833 333.09298,52.3024379 C333.09298,66.0378925 322.98541,75.0581911 308.416568,75.0581911 L295.311582,75.0581911 Z M299.981976,66.5162417 L308.416568,66.5162417 C317.617942,66.5162417 322.98541,60.0243602 322.98541,52.3024379 C322.98541,44.2388377 317.966479,38.0202985 308.416568,38.0202985 L299.981976,38.0202985 L299.981976,66.5162417 Z M355.538755,75.8782182 C344.455282,75.8782182 337.763374,67.9512892 337.763374,58.5209771 C337.763374,49.1590005 344.455282,41.2320715 355.538755,41.2320715 C366.691936,41.2320715 373.383844,49.1590005 373.383844,58.5209771 C373.383844,67.9512892 366.691936,75.8782182 355.538755,75.8782182 Z M355.538755,68.156296 C361.045638,68.156296 364.18247,63.7144823 364.18247,58.5209771 C364.18247,53.3958074 361.045638,48.9539938 355.538755,48.9539938 C350.031873,48.9539938 346.964748,53.3958074 346.964748,58.5209771 C346.964748,63.7144823 350.031873,68.156296 355.538755,68.156296 Z M377.775409,58.5209771 C377.775409,48.407309 385.234098,41.2320715 395.620497,41.2320715 C400.08177,41.2320715 403.358016,42.4621122 405.867482,44.3071733 C406.913093,44.9905292 407.610166,46.22057 407.610166,47.5189463 C407.610166,49.6373497 405.797774,51.4140752 403.636846,51.4140752 C402.73065,51.4140752 401.963869,51.1407328 401.336502,50.6623836 C399.80294,49.5006785 398.060256,48.9539938 396.038742,48.9539938 C390.671274,48.9539938 386.907075,52.7807871 386.907075,58.5209771 C386.907075,64.2611671 390.671274,68.156296 396.038742,68.156296 C398.060256,68.156296 399.80294,67.6096112 401.266795,66.4479061 C401.894161,65.9695569 402.73065,65.6962146 403.567138,65.6962146 C405.797774,65.6962146 407.610166,67.4046044 407.610166,69.5913435 C407.610166,70.8897198 406.913093,72.1197605 405.867482,72.8031164 C403.358016,74.6481775 400.08177,75.8782182 395.620497,75.8782182 C385.234098,75.8782182 377.775409,68.7029807 377.775409,58.5209771 Z M414.023245,72.6664452 C412.907927,72.0514249 412.141146,70.8213842 412.141146,69.5230079 C412.141146,67.5412756 413.814123,65.9012213 415.835637,65.9012213 C416.532711,65.9012213 417.160077,66.1062281 417.717736,66.3795705 C420.436324,68.0196248 423.782278,69.1813299 426.849402,69.1813299 C430.683308,69.1813299 432.4957,67.8829536 432.4957,65.8328857 C432.4957,63.5094755 429.56799,62.6894484 425.734084,61.9377568 C419.948372,60.8443873 412.489683,59.4776754 412.489683,51.619082 C412.489683,46.0838988 417.438906,41.2320715 426.291743,41.2320715 C430.613601,41.2320715 434.308092,42.325441 437.375216,44.1705021 C438.420827,44.7171869 439.117901,45.8105564 439.117901,47.0405971 C439.117901,48.8856582 437.584339,50.3890413 435.702239,50.3890413 C435.14458,50.3890413 434.447507,50.2523701 434.029262,49.9790277 C431.868334,48.6806514 429.219453,47.8606242 426.361451,47.8606242 C423.154911,47.8606242 421.06369,49.0223294 421.06369,50.935726 C421.06369,52.9857939 423.71257,53.7374854 427.476769,54.489177 C433.262481,55.5825465 441,57.0859296 441,65.286201 C441,71.3680689 435.771947,75.8782182 426.431158,75.8782182 C421.900179,75.8782182 417.578321,74.7848487 414.023245,72.6664452 Z" id="HelpDocs" fill="#FFFFFF"></path>
        </g>
    </g>
</svg>