<?xml version="1.0" encoding="UTF-8"?>
<svg width="56px" height="48px" viewBox="0 0 56 48" version="1.1" xmlns="http://www.w3.org/2000/svg" xmlns:xlink="http://www.w3.org/1999/xlink">
    <title>Shape</title>
    <g id="Page-1" stroke="none" stroke-width="1" fill="none" fill-rule="evenodd">
        <path d="M52,0 C54.2091,0 56,1.79086 56,4 L56,20 C56,22.2091 54.2091,24 52,24 L40,24 C40,32.82 47.172,40 56,40 L56,48 C42.766,48 32,37.234 32,24 L32,4 C32,1.79086 33.7909,0 36,0 L52,0 Z M20,0 C22.2091,0 24,1.79086 24,4 L24,20 C24,22.2091 22.2091,24 20,24 L8,24 C8,32.82 15.172,40 24,40 L24,48 C10.766,48 0,37.234 0,24 L0,4 C0,1.79086 1.79086,0 4,0 L20,0 Z" id="Shape" fill="#FD6728" fill-rule="nonzero"></path>
    </g>
</svg>