<?xml version="1.0" encoding="UTF-8"?>
<svg width="315px" height="67px" viewBox="0 0 315 67" version="1.1" xmlns="http://www.w3.org/2000/svg" xmlns:xlink="http://www.w3.org/1999/xlink">
    <title>2</title>
    <defs>
        <polygon id="path-1" points="0 0 88 0 88 52 0 52"></polygon>
        <polygon id="path-3" points="0 14.8437493 86.744792 0.0416666667 94.6510413 46.375 7.90625067 61.1770827"></polygon>
        <polygon id="path-5" points="0 14.8437493 86.744792 0.0416666667 94.6510413 46.375 7.90625067 61.1770827"></polygon>
    </defs>
    <g id="Page-1" stroke="none" stroke-width="1" fill="none" fill-rule="evenodd">
        <g id="2" transform="translate(0.333333, 0.333333)">
            <g id="Group" transform="translate(110.333333, 0.333333)" fill="#000000" fill-rule="nonzero">
                <g transform="translate(0.737916, 0.536795)" id="Path">
                    <path d="M10.4583333,5.77083333 C9.58333333,5.77083333 8.864584,6 8.3125,6.45833333 C7.755208,6.91666667 7.47916667,7.58333333 7.47916667,8.45833333 C7.47916667,9.33333333 7.73437467,10.0364587 8.25,10.5625 C8.760416,11.0937493 9.4375,11.5 10.2708333,11.7916667 C11.1041667,12.0729173 12.0260413,12.3437493 13.0416667,12.6041667 C14.067708,12.869792 15.0833333,13.1875 16.0833333,13.5625 C17.0937493,13.9270827 18.0208333,14.375 18.8541667,14.9166667 C19.6875,15.4583333 20.3593747,16.2291667 20.875,17.2291667 C21.385416,18.2187493 21.6458333,19.4062507 21.6458333,20.7916667 C21.6458333,23.2239587 20.6562507,25.307292 18.6875,27.0416667 C16.7135413,28.7656253 14.1093747,29.625 10.875,29.625 C7.65104133,29.625 5.05208267,28.8489587 3.08333333,27.2916667 C1.10937467,25.739584 0.125,23.5312507 0.125,20.6666667 L7.5625,20.6666667 C7.739584,22.9583333 8.90625067,24.1041667 11.0625,24.1041667 C12.0729173,24.1041667 12.864584,23.8437493 13.4375,23.3125 C14.005208,22.7864587 14.2916667,22.114584 14.2916667,21.2916667 C14.2916667,20.4739587 14.0312507,19.807292 13.5208333,19.2916667 C13.005208,18.7656253 12.3333333,18.3541667 11.5,18.0625 C10.6666667,17.760416 9.73437467,17.4791667 8.70833333,17.2291667 C7.692708,16.9687493 6.67708267,16.6458333 5.66666667,16.2708333 C4.66666667,15.885416 3.75,15.4270827 2.91666667,14.8958333 C2.08333333,14.369792 1.40625067,13.6041667 0.895833333,12.6041667 C0.380208,11.6041667 0.125,10.4270827 0.125,9.0625 C0.125,6.39583333 1.114584,4.26562533 3.10416667,2.66666667 C5.08854133,1.057292 7.625,0.25 10.7083333,0.25 C13.8020827,0.25 16.3020827,0.953125333 18.2083333,2.35416667 C20.125,3.760416 21.125,5.96874933 21.2083333,8.97916667 L13.6041667,8.97916667 C13.489584,7.95312533 13.1562507,7.16145867 12.6041667,6.60416667 C12.0468747,6.05208267 11.3333333,5.77083333 10.4583333,5.77083333 Z"></path>
                </g>
            </g>
            <g id="Group" transform="translate(134.000000, 0.333333)" fill="#000000" fill-rule="nonzero">
                <g transform="translate(0.325329, 0.536795)" id="Path">
                    <polygon points="0.104166667 5.95833333 0.104166667 0.645833333 22.7291667 0.645833333 22.7291667 5.95833333 14.8958333 5.95833333 14.8958333 29.3333333 7.89583333 29.3333333 7.89583333 5.95833333"></polygon>
                </g>
            </g>
            <g id="Group" transform="translate(158.666667, 0.333333)" fill="#000000" fill-rule="nonzero">
                <g transform="translate(0.319845, 0.536795)" id="Path">
                    <path d="M0.270833333,17.7708333 L0.270833333,0.645833333 L7.27083333,0.645833333 L7.27083333,17.7708333 C7.27083333,19.494792 7.6875,20.8229173 8.52083333,21.75 C9.364584,22.6666667 10.6041667,23.125 12.2291667,23.125 C13.864584,23.125 15.125,22.6666667 16,21.75 C16.875,20.8229173 17.3125,19.494792 17.3125,17.7708333 L17.3125,0.645833333 L24.2916667,0.645833333 L24.2916667,17.7708333 C24.2916667,20.3020827 23.6979173,22.489584 22.5208333,24.3333333 C21.3385413,26.1666667 19.8385413,27.510416 18.0208333,28.3541667 C16.2135413,29.2031251 14.25,29.625 12.125,29.625 C8.80208267,29.625 6,28.5937493 3.70833333,26.5208333 C1.41666667,24.4531253 0.270833333,21.5364587 0.270833333,17.7708333 Z"></path>
                </g>
            </g>
            <g id="Group" transform="translate(184.000000, 0.333333)" fill="#000000" fill-rule="nonzero">
                <g transform="translate(0.338132, 0.536795)" id="Shape">
                    <path d="M21.2916667,29.3333333 L19.6875,24.5208333 L9.39583333,24.5208333 L7.8125,29.3333333 L0.375,29.3333333 L10.3333333,0.5625 L18.8333333,0.5625 L28.7708333,29.3333333 L21.2916667,29.3333333 Z M11.1458333,19.2083333 L17.9375,19.2083333 L14.5416667,8.97916667 L11.1458333,19.2083333 Z"></path>
                </g>
            </g>
            <g id="Group" transform="translate(213.333333, 0.333333)" fill="#000000" fill-rule="nonzero">
                <g transform="translate(0.954575, 0.536795)" id="Shape">
                    <path d="M7.375,18.1875 L7.375,29.3333333 L0.395833333,29.3333333 L0.395833333,0.645833333 L11.7083333,0.645833333 C15.0416667,0.645833333 17.630208,1.510416 19.4791667,3.22916667 C21.3229173,4.9375 22.25,7.010416 22.25,9.4375 C22.25,11.1041667 21.739584,12.7291667 20.7291667,14.3125 C19.7291667,15.885416 18.0833333,16.994792 15.7916667,17.6458333 L22.8333333,29.3333333 L14.6458333,29.3333333 L8.20833333,18.1875 L7.375,18.1875 Z M7.375,5.95833333 L7.375,12.875 L11.7083333,12.875 C12.7760413,12.875 13.614584,12.5625 14.2291667,11.9375 C14.8385413,11.3125 15.1458333,10.489584 15.1458333,9.45833333 C15.1458333,8.432292 14.8333333,7.59374933 14.2083333,6.9375 C13.5833333,6.28645867 12.75,5.95833333 11.7083333,5.95833333 L7.375,5.95833333 Z"></path>
                </g>
            </g>
            <g id="Group" transform="translate(238.000000, 0.333333)" fill="#000000" fill-rule="nonzero">
                <g transform="translate(0.066385, 0.536795)" id="Path">
                    <polygon points="0.104166667 5.95833333 0.104166667 0.645833333 22.7291667 0.645833333 22.7291667 5.95833333 14.8958333 5.95833333 14.8958333 29.3333333 7.89583333 29.3333333 7.89583333 5.95833333"></polygon>
                </g>
            </g>
            <g id="Group" transform="translate(110.666667, 35.000000)" fill="#000000" fill-rule="nonzero">
                <g transform="translate(0.737916, 0.870125)" id="Shape">
                    <path d="M0.395833333,0.9375 L11.2291667,0.9375 C14.1458333,0.9375 16.4010413,1.64583333 18,3.0625 C19.6093747,4.47916667 20.4166667,6.28125067 20.4166667,8.45833333 C20.4166667,11.6406253 18.5729173,13.739584 14.8958333,14.75 C16.755208,15.0416667 18.25,15.869792 19.375,17.2291667 C20.5,18.5781253 21.0625,20.119792 21.0625,21.8541667 C21.0625,24.0364587 20.2135413,25.8281253 18.5208333,27.2291667 C16.8385413,28.635416 14.5833333,29.3333333 11.75,29.3333333 L0.395833333,29.3333333 L0.395833333,0.9375 Z M5.0625,4.58333333 L5.0625,13 L10.8125,13 C12.3385413,13 13.5260413,12.635416 14.375,11.8958333 C15.2343747,11.1614587 15.6666667,10.135416 15.6666667,8.8125 C15.6666667,7.47916667 15.2343747,6.44791733 14.375,5.70833333 C13.5260413,4.95833333 12.3385413,4.58333333 10.8125,4.58333333 L5.0625,4.58333333 Z M5.0625,25.6875 L11.3541667,25.6875 C12.9218747,25.6875 14.1562507,25.3020827 15.0625,24.5208333 C15.9635413,23.7291667 16.4166667,22.635416 16.4166667,21.2291667 C16.4166667,19.8281253 15.9375,18.7083333 14.9791667,17.875 C14.0312507,17.0416667 12.7708333,16.625 11.1875,16.625 L5.0625,16.625 L5.0625,25.6875 Z"></path>
                </g>
            </g>
            <g id="Group" transform="translate(133.333333, 35.000000)" fill="#000000" fill-rule="nonzero">
                <g transform="translate(0.630993, 0.870125)" id="Shape">
                    <path d="M20.8958333,29.3333333 L18.8541667,23.5416667 L6.95833333,23.5416667 L4.91666667,29.3333333 L0.0625,29.3333333 L10.2291667,0.895833333 L15.625,0.895833333 L25.7916667,29.3333333 L20.8958333,29.3333333 Z M8.22916667,19.8958333 L17.5833333,19.8958333 L12.9166667,6.54166667 L8.22916667,19.8958333 Z"></path>
                </g>
            </g>
            <g id="Group" transform="translate(161.333333, 35.000000)" fill="#000000" fill-rule="nonzero">
                <g transform="translate(0.593928, 0.870125)" id="Path">
                    <polygon points="0.395833333 0.9375 5.0625 0.9375 5.0625 25.7708333 14.6458333 25.7708333 14.6458333 29.3333333 0.395833333 29.3333333"></polygon>
                </g>
            </g>
            <g id="Group" transform="translate(176.000000, 35.000000)" fill="#000000" fill-rule="nonzero">
                <g transform="translate(0.890063, 0.870125)" id="Path">
                    <path d="M14.6875,29.5833333 C10.630208,29.5833333 7.19791733,28.2239587 4.39583333,25.5 C1.58854133,22.7812507 0.1875,19.3125 0.1875,15.1041667 C0.1875,10.8958333 1.58854133,7.42708267 4.39583333,4.6875 C7.19791733,1.9375 10.630208,0.5625 14.6875,0.5625 C17.6979173,0.5625 20.385416,1.307292 22.75,2.79166667 C25.1093747,4.28125067 26.817708,6.385416 27.875,9.10416667 L22.2708333,9.10416667 C20.755208,6.244792 18.2291667,4.8125 14.6875,4.8125 C11.8229173,4.8125 9.48437467,5.760416 7.66666667,7.64583333 C5.85937467,9.52083333 4.95833333,12.010416 4.95833333,15.1041667 C4.95833333,18.1875 5.85937467,20.6770827 7.66666667,22.5625 C9.48437467,24.4375 11.8229173,25.375 14.6875,25.375 C18.2291667,25.375 20.755208,23.9479173 22.2708333,21.0833333 L27.875,21.0833333 C26.817708,23.807292 25.1093747,25.9062507 22.75,27.375 C20.385416,28.8489587 17.6979173,29.5833333 14.6875,29.5833333 Z"></path>
                </g>
            </g>
            <g id="Group" transform="translate(206.333333, 35.000000)" fill="#000000" fill-rule="nonzero">
                <g transform="translate(0.290461, 0.870125)" id="Shape">
                    <path d="M14.6875,25.4166667 C17.5468747,25.4166667 19.880208,24.4739587 21.6875,22.5833333 C23.489584,20.682292 24.3958333,18.1875 24.3958333,15.1041667 C24.3958333,12.010416 23.489584,9.52083333 21.6875,7.64583333 C19.880208,5.760416 17.5468747,4.8125 14.6875,4.8125 C11.8229173,4.8125 9.48437467,5.760416 7.66666667,7.64583333 C5.85937467,9.52083333 4.95833333,12.010416 4.95833333,15.1041667 C4.95833333,18.1875 5.85937467,20.682292 7.66666667,22.5833333 C9.48437467,24.4739587 11.8229173,25.4166667 14.6875,25.4166667 Z M14.7083333,29.625 C10.635416,29.625 7.19791733,28.260416 4.39583333,25.5208333 C1.58854133,22.7864587 0.1875,19.3125 0.1875,15.1041667 C0.1875,10.8958333 1.58854133,7.42708267 4.39583333,4.6875 C7.19791733,1.9375 10.635416,0.5625 14.7083333,0.5625 C18.7760413,0.5625 22.2083333,1.9375 25,4.6875 C27.7916667,7.42708267 29.1875,10.8958333 29.1875,15.1041667 C29.1875,19.3125 27.7916667,22.7864587 25,25.5208333 C22.2083333,28.260416 18.7760413,29.625 14.7083333,29.625 Z"></path>
                </g>
            </g>
            <g id="Group" transform="translate(237.333333, 35.000000)" fill="#000000" fill-rule="nonzero">
                <g transform="translate(0.806807, 0.870125)" id="Path">
                    <polygon points="30.3125 0.9375 30.3125 29.3333333 25.6458333 29.3333333 25.6458333 9.89583333 16.9791667 29.3333333 13.75 29.3333333 5.0625 9.89583333 5.0625 29.3333333 0.395833333 29.3333333 0.395833333 0.9375 5.41666667 0.9375 15.3958333 23.2083333 25.3125 0.9375"></polygon>
                </g>
            </g>
            <g id="Group" transform="translate(272.000000, 35.000000)" fill="#000000" fill-rule="nonzero">
                <g transform="translate(0.325836, 0.870125)" id="Shape">
                    <path d="M0.395833333,0.9375 L11.2291667,0.9375 C14.1458333,0.9375 16.4010413,1.64583333 18,3.0625 C19.6093747,4.47916667 20.4166667,6.28125067 20.4166667,8.45833333 C20.4166667,11.6406253 18.5729173,13.739584 14.8958333,14.75 C16.755208,15.0416667 18.25,15.869792 19.375,17.2291667 C20.5,18.5781253 21.0625,20.119792 21.0625,21.8541667 C21.0625,24.0364587 20.2135413,25.8281253 18.5208333,27.2291667 C16.8385413,28.635416 14.5833333,29.3333333 11.75,29.3333333 L0.395833333,29.3333333 L0.395833333,0.9375 Z M5.0625,4.58333333 L5.0625,13 L10.8125,13 C12.3385413,13 13.5260413,12.635416 14.375,11.8958333 C15.2343747,11.1614587 15.6666667,10.135416 15.6666667,8.8125 C15.6666667,7.47916667 15.2343747,6.44791733 14.375,5.70833333 C13.5260413,4.95833333 12.3385413,4.58333333 10.8125,4.58333333 L5.0625,4.58333333 Z M5.0625,25.6875 L11.3541667,25.6875 C12.9218747,25.6875 14.1562507,25.3020827 15.0625,24.5208333 C15.9635413,23.7291667 16.4166667,22.635416 16.4166667,21.2291667 C16.4166667,19.8281253 15.9375,18.7083333 14.9791667,17.875 C14.0312507,17.0416667 12.7708333,16.625 11.1875,16.625 L5.0625,16.625 L5.0625,25.6875 Z"></path>
                </g>
            </g>
            <g id="Group" transform="translate(296.000000, 35.000000)" fill="#000000" fill-rule="nonzero">
                <g transform="translate(0.218917, 0.870125)" id="Path">
                    <polygon points="16.0833333 0.895833333 16.0833333 4.54166667 5.0625 4.54166667 5.0625 13.1458333 14.8541667 13.1458333 14.8541667 16.75 5.0625 16.75 5.0625 25.6875 16.0833333 25.6875 16.0833333 29.3333333 0.395833333 29.3333333 0.395833333 0.895833333"></polygon>
                </g>
            </g>
            <g id="Clipped" transform="translate(0.000000, 8.333333)">
                <mask id="mask-2" fill="white">
                    <use xlink:href="#path-1"></use>
                </mask>
                <g id="Path"></g>
                <g mask="url(#mask-2)">
                    <g transform="translate(-1.333333, -4.000000)">
                        <mask id="mask-4" fill="white">
                            <use xlink:href="#path-3"></use>
                        </mask>
                        <g id="Path" stroke="none" fill="none"></g>
                        <g id="Clipped" stroke="none" stroke-width="1" fill="none" fill-rule="evenodd" mask="url(#mask-4)">
                            <mask id="mask-6" fill="white">
                                <use xlink:href="#path-5"></use>
                            </mask>
                            <g id="Path"></g>
                            <path d="M89.0520827,14.4635413 C88.989584,13.5312507 88.5989587,12.6718747 88.4583333,11.7708333 C88.239584,10.4062507 87.489584,9.70312533 86.2031253,9.239584 C80.2760413,7.09374933 74.182292,5.64062533 67.9791667,4.64583333 C66.3906253,4.39062533 64.7916667,4.04687467 63.1666667,4.17708267 C62.1875,4.260416 61.9218747,4.510416 62.057292,5.494792 C62.182292,6.375 62.3593747,7.27604133 62.682292,8.09895867 C63.0989587,9.16145867 63.8125,9.66666667 64.4479173,9.32291733 C65.1718747,8.92708267 65.7656253,9.16145867 66.432292,9.28125067 C67.5625,9.48437467 68.7031253,9.65625067 69.8385413,9.84895867 C69.8489587,10.1093747 69.692708,10.2916667 69.5312507,10.4739587 C69.3020827,10.4843747 69.067708,10.4791667 68.8437493,10.5156253 C60.8385413,11.8906253 52.989584,13.8541667 45.5520827,17.1979173 C44.5937493,17.625 43.8020827,17.7083333 42.8020827,17.255208 C40.9531253,16.4166667 38.9583333,16.0937493 36.9166667,16.067708 C33.7760413,16.0260413 30.7291667,16.7135413 27.682292,17.2812507 C19.7656253,18.7656253 12.4062507,21.8489587 5.307292,25.5937493 C4.54687467,25.994792 3.817708,26.4687493 3.09374933,26.9375 C2.755208,27.1562507 2.47395867,27.4218747 2.47909548,27.9062507 C2.494792,29.114584 4.630208,31.6458333 5.79166667,31.7916667 C6.010416,31.817708 6.369792,31.8489587 6.33854133,31.5885413 C6.21874933,30.4531253 7.21354133,30.510416 7.79166667,30.1979173 C9.005208,29.5416667 10.2708333,28.989584 11.5156253,28.3906253 C11.885416,28.4687493 12.1718747,28.255208 12.4687493,28.1041667 C15.2291667,26.7135413 18.125,25.7083333 21.130208,25 C21.7812507,24.8489587 22.4791667,24.7916667 23.0520827,24.364584 C24.2135413,24.1666667 25.3489587,23.8958333 26.4479173,23.4739587 C26.5729173,23.4479173 26.6979173,23.4010413 26.8281253,23.3333333 C27.2187493,23.2708333 27.614584,23.2187493 28,23.135416 C30.4479173,22.619792 32.8958333,22.0520827 35.4114587,21.942708 C35.739584,22.1666667 36.25,21.864584 36.5,22.317708 C34.8333333,23.6562507 33.1458333,24.9687493 31.510416,26.3489587 C27.9010413,29.3906253 25.239584,33.1093747 23.7656253,37.635416 C22.869792,40.364584 22.817708,43.1093747 23.9270827,45.7968747 C25.0208333,48.4687493 26.630208,50.7916667 28.8020827,52.6875 C31.260416,54.8281253 34.1510413,55.9843747 37.3906253,55.6979173 C43.0989587,55.1875 48.057292,52.875 52.1406253,48.8333333 C55.75,45.260416 57.2239587,40.9687493 56.2239587,35.8489587 C55.375,31.489584 53.4218747,27.6562507 51.0312507,24 C50.7916667,23.6406253 50.4010413,23.3489587 50.364584,22.9218747 C50.5416667,22.7656253 50.614584,22.6562507 50.7135413,22.619792 C51.9010413,22.1770827 53.0833333,21.7187493 54.2812507,21.317708 C61.010416,19.0625 67.9166667,17.567708 74.9739587,16.7656253 C75.2708333,16.7916667 75.5625,16.817708 75.8593747,16.8333333 C75.0208333,17.7916667 74.1770827,18.7343747 73.3593747,19.7083333 C72.7708333,20.4062507 71.942708,21.067708 71.989584,22.0468747 C72.057292,23.4062507 72.057292,24.807292 72.7239587,26.0729173 C73.0364587,26.6666667 73.3958333,26.8541667 73.9062507,26.3020827 C76.0989587,23.9010413 78.75,22.0260413 81.2291667,19.9583333 C83.2291667,18.2968747 85.3489587,16.7812507 87.9479173,16.1562507 C88.8333333,15.9375 89.1093747,15.3229173 89.0520827,14.4635413 Z M57.364584,17.0625 C57.5937493,17.0156253 57.817708,16.9791667 58.0416667,16.9375 C58.0416667,17.005208 58.0416667,17.0781253 58.0416667,17.1458333 C58.0416667,17.1979173 58.0416667,17.255208 58.0416667,17.307292 C57.817708,17.3333333 57.5937493,17.364584 57.375,17.3906253 C57.119792,17.7187493 56.760416,17.7343747 56.3906253,17.739584 C56.3333333,17.692708 56.2760413,17.6458333 56.2083333,17.5989587 C56.1406253,17.5468747 56.0729173,17.4843747 56,17.432292 C56.4635413,17.307292 56.9166667,17.182292 57.364584,17.0625 Z M51.4479173,18.9531253 C51.6510413,19 51.7916667,18.9166667 51.875,18.7291667 C52.0833333,18.7187493 52.2916667,18.7031253 52.5,18.692708 C52.7812507,18.4270827 53.1041667,18.2864587 53.489584,18.307292 C53.5468747,18.3541667 53.5989587,18.4062507 53.6562507,18.4583333 C53.7187493,18.5156253 53.7812507,18.5729173 53.8437493,18.630208 C53.3958333,18.7656253 52.9479173,18.8906253 52.494792,19.0260413 C52.1614587,19.1458333 51.8229173,19.2760413 51.489584,19.3958333 C51.4375,19.3541667 51.3906253,19.3125 51.3385413,19.2708333 C51.2760413,19.2083333 51.2031253,19.1510413 51.135416,19.0885413 C51.2343747,19.0416667 51.3385413,18.989584 51.4479173,18.9531253 Z M50.0364587,19.5833333 C50.0416667,19.6875 50.0416667,19.7864587 50.0416667,19.885416 C50.0468747,19.9218747 50.0416667,19.9635413 50.0468747,20 C49.9583333,20.067708 49.8593747,20.0937493 49.75,20.0833333 C49.7031253,20.0468747 49.6614587,20.010416 49.619792,19.9739587 C49.5468747,19.9114587 49.4739587,19.8489587 49.4010413,19.7864587 C49.6093747,19.7187493 49.8281253,19.6510413 50.0364587,19.5833333 Z M39.9583333,24.6614587 C39.9583333,24.8333333 39.9583333,25 39.9635413,25.1718747 C39.8541667,25.2291667 39.75,25.2864587 39.6406253,25.3437493 C39.6406253,25.1875 39.635416,25.0364587 39.6406253,24.880208 C39.739584,24.807292 39.8489587,24.7343747 39.9583333,24.6614587 Z M38.8333333,25.6979173 C38.8229173,25.7135413 38.8229173,25.7343747 38.817708,25.755208 C38.7083333,25.744792 38.6406253,25.682292 38.5989587,25.5729173 C38.7031253,25.5 38.807292,25.4375 38.9114587,25.369792 C38.880208,25.4791667 38.8593747,25.5885413 38.8333333,25.6979173 Z M38.9635413,20.0781253 C38.7812507,20.067708 38.5989587,20.067708 38.4166667,20.0625 C38.2968747,20.0416667 38.1770827,20.0260413 38.0625,20.0156253 C38.369792,20.005208 38.6770827,19.989584 38.989584,19.9791667 C38.8906253,19.7656253 39.1875,19.9739587 38.9635413,20.0781253 Z M35.8125,27.6406253 C35.9114587,27.567708 36.010416,27.494792 36.114584,27.4218747 C36.0989587,27.5364587 36.0781253,27.6562507 36.0625,27.7708333 C36.0625,27.7760413 36.057292,27.7812507 36.0625,27.7864587 C35.942708,27.817708 35.8593747,27.7656253 35.8125,27.6406253 Z M49.494792,45.442708 C49.494792,45.5312507 49.5,45.619792 49.494792,45.7083333 C49.494792,45.739584 49.494792,45.7708333 49.494792,45.7968747 C49.442708,45.9687493 49.3333333,46.0781253 49.1510413,46.0989587 C49.067708,46.2135413 48.9635413,46.25 48.8385413,46.2083333 C48.8906253,46.3229173 48.869792,46.4166667 48.7656253,46.510416 C48.7187493,46.4583333 48.6666667,46.4062507 48.614584,46.3541667 C48.5729173,46.3125 48.5312507,46.2656253 48.4843747,46.2239587 C48.5833333,46.2031253 48.6875,46.1875 48.7864587,46.1666667 C48.7656253,45.9114587 48.9166667,45.817708 49.1406253,45.7812507 C49.1562507,45.557292 49.2968747,45.4635413 49.494792,45.442708 Z M47.0520827,47.4166667 C47.0520827,47.510416 47.0520827,47.6041667 47.0468747,47.6979173 C47.0468747,47.75 47.0468747,47.8020827 47.0468747,47.8541667 C46.9375,47.9218747 46.8333333,47.994792 46.7291667,48.067708 C46.7291667,47.9791667 46.739584,47.885416 46.739584,47.7968747 C46.744792,47.739584 46.75,47.682292 46.755208,47.619792 C46.8489587,47.5520827 46.9479173,47.4843747 47.0520827,47.4166667 Z M52.692708,41.7083333 C52.7656253,41.7031253 52.8333333,41.7031253 52.9062507,41.7031253 C52.9635413,41.7031253 53.0208333,41.7031253 53.0729173,41.6979173 C53.0312507,41.807292 52.994792,41.9114587 52.9531253,42.0208333 C52.9010413,42.0208333 52.8489587,42.0208333 52.7968747,42.0208333 C52.7187493,42.0208333 52.635416,42.0208333 52.5520827,42.0208333 C52.5833333,41.9062507 52.635416,41.807292 52.692708,41.7083333 Z M50.7343747,27.9114587 C51.557292,29.8489587 52.114584,31.8333333 52.0989587,33.5312507 C52.114584,36.9635413 50.885416,39.489584 48.9583333,41.6510413 C44.8281253,46.2864587 39.567708,48.7864587 33.442708,49.432292 C31.9375,49.5937493 30.4739587,49.1875 29.0520827,48.6562507 C28.0885413,48.2916667 27.619792,47.6614587 27.6300382,46.5520827 C27.6510413,44.5364587 28.1718747,42.6666667 28.9739587,40.8541667 C30.5364587,37.3020827 32.9010413,34.3385413 35.7187493,31.7291667 C38.875,28.807292 42.4791667,26.5520827 46.2760413,24.5729173 C47.0885413,24.1510413 47.635416,24.307292 48.2812507,24.817708 C49.3437493,25.6666667 50.1979173,26.6406253 50.7343747,27.9114587 Z" id="Shape" fill="#FD6728" fill-rule="nonzero" mask="url(#mask-6)"></path>
                        </g>
                    </g>
                </g>
            </g>
        </g>
    </g>
</svg>